<svg width="23" height="18" viewBox="0 0 23 18" fill="none" xmlns="http://www.w3.org/2000/svg">
<path fill-rule="evenodd" clip-rule="evenodd" d="M20.1305 0H2.73922C1.54357 0 0.565308 0.9 0.565308 2V16C0.565308 17.1 1.54357 18 2.73922 18H20.1305C21.3262 18 22.3044 17.1 22.3044 16V2C22.3044 0.9 21.3262 0 20.1305 0ZM8.174 14H4.91313C4.31531 14 3.82618 13.55 3.82618 13C3.82618 12.45 4.31531 12 4.91313 12H8.174C8.77183 12 9.26096 12.45 9.26096 13C9.26096 13.55 8.77183 14 8.174 14ZM8.174 10H4.91313C4.31531 10 3.82618 9.55 3.82618 9C3.82618 8.45 4.31531 8 4.91313 8H8.174C8.77183 8 9.26096 8.45 9.26096 9C9.26096 9.55 8.77183 10 8.174 10ZM8.174 6H4.91313C4.31531 6 3.82618 5.55 3.82618 5C3.82618 4.45 4.31531 4 4.91313 4H8.174C8.77183 4 9.26096 4.45 9.26096 5C9.26096 5.55 8.77183 6 8.174 6ZM18.7175 8.12L15.2718 11.29C14.8479 11.68 14.1523 11.68 13.7284 11.29L12.1957 9.87C11.7718 9.48 11.7718 8.85 12.1957 8.46C12.6197 8.07 13.3044 8.07 13.7284 8.46L14.5001 9.17L17.1849 6.7C17.6088 6.31 18.2936 6.31 18.7175 6.7L18.7284 6.71C19.1414 7.1 19.1414 7.74 18.7175 8.12Z" fill="black" fill-opacity="0.7"/>
</svg>
