<svg width="15" height="19" viewBox="0 0 15 19" fill="none" xmlns="http://www.w3.org/2000/svg">
<path d="M7.99995 0C7.53995 0 7.06995 0.0400001 6.59995 0.14C3.83995 0.67 1.63995 2.9 1.11995 5.66C0.639949 8.27 1.59995 10.67 3.33995 12.22C3.76995 12.6 3.99995 13.13 3.99995 13.69V16C3.99995 17.1 4.89995 18 5.99995 18H6.27995C6.62995 18.6 7.25995 19 7.99995 19C8.73995 19 9.37995 18.6 9.71995 18H9.99995C11.0999 18 11.9999 17.1 11.9999 16V13.69C11.9999 13.14 12.2199 12.6 12.6399 12.23C14.0899 10.95 14.9999 9.08 14.9999 7C14.9999 3.13 11.8699 0 7.99995 0ZM8.49995 11H7.49995V8.41L5.66995 6.59L6.37995 5.88L7.99995 7.5L9.61995 5.88L10.3299 6.59L8.49995 8.42V11V11ZM9.49995 16C9.48995 16 9.47995 15.99 9.46995 15.99V16H6.52995V15.99C6.51995 15.99 6.50995 16 6.49995 16C6.21995 16 5.99995 15.78 5.99995 15.5C5.99995 15.22 6.21995 15 6.49995 15C6.50995 15 6.51995 15.01 6.52995 15.01V15H9.46995V15.01C9.47995 15.01 9.48995 15 9.49995 15C9.77995 15 9.99995 15.22 9.99995 15.5C9.99995 15.78 9.77995 16 9.49995 16ZM9.49995 14H6.49995C6.21995 14 5.99995 13.78 5.99995 13.5C5.99995 13.22 6.21995 13 6.49995 13H9.49995C9.77995 13 9.99995 13.22 9.99995 13.5C9.99995 13.78 9.77995 14 9.49995 14Z" fill="black" fill-opacity="0.7"/>
</svg>
