<svg width="25" height="14" viewBox="0 0 25 14" fill="none" xmlns="http://www.w3.org/2000/svg">
<path fill-rule="evenodd" clip-rule="evenodd" d="M11.337 3C11.337 4.66 9.89132 6 8.08697 6C6.28262 6 4.8261 4.66 4.8261 3C4.8261 1.34 6.28262 0 8.08697 0C9.89132 0 11.337 1.34 11.337 3ZM20.0326 3C20.0326 4.66 18.587 6 16.7826 6C14.9783 6 13.5217 4.66 13.5217 3C13.5217 1.34 14.9783 0 16.7826 0C18.587 0 20.0326 1.34 20.0326 3ZM8.08697 8C5.55436 8 0.478271 9.17 0.478271 11.5V13C0.478271 13.55 0.967402 14 1.56523 14H14.6087C15.2065 14 15.6957 13.55 15.6957 13V11.5C15.6957 9.17 10.6196 8 8.08697 8ZM15.7283 8.05C16.1087 8.02 16.4674 8 16.7826 8C19.3152 8 24.3913 9.17 24.3913 11.5V13C24.3913 13.55 23.9022 14 23.3044 14H17.6739C17.7935 13.69 17.8696 13.35 17.8696 13V11.5C17.8696 10.03 17.0109 8.92 15.7717 8.09C15.7685 8.08697 15.7652 8.08303 15.7616 8.07872C15.7533 8.06881 15.7434 8.05697 15.7283 8.05Z" fill="#4D4D4D"/>
</svg>
