<svg width="21" height="12" viewBox="0 0 21 12" fill="none" xmlns="http://www.w3.org/2000/svg">
<path d="M15.4365 0.85L16.9767 2.29L11.7572 7.17L8.23832 3.88C7.82119 3.49 7.14737 3.49 6.73024 3.88L0.312848 9.89C-0.104283 10.28 -0.104283 10.91 0.312848 11.3C0.729978 11.69 1.4038 11.69 1.82093 11.3L7.47893 6L10.9978 9.29C11.4149 9.68 12.0888 9.68 12.5059 9.29L18.4848 3.71L20.0249 5.15C20.3565 5.46 20.9341 5.24 20.9341 4.8V0.5C20.9448 0.22 20.7095 0 20.41 0H15.8215C15.3402 0 15.1049 0.54 15.4365 0.85Z" fill="#4D4D4D"/>
</svg>
