<svg width="150" height="19" viewBox="0 0 150 19" fill="none" xmlns="http://www.w3.org/2000/svg">
<path d="M127.877 7.42811V18.5891H131.619V11.1484H145.307V18.5891H149.05V7.42811H127.877ZM131.192 3.8097H145.628C147.66 3.45295 149.103 1.72019 149.531 0.0893555H127.289C127.716 1.72019 129.213 3.40199 131.192 3.8097ZM116.488 18.5891C118.36 17.8247 119.375 16.4996 119.803 14.9707H102.961V0.140319H99.1648V18.5891H116.488ZM71.0945 3.75873H84.4614C86.4931 3.19813 88.1506 1.72019 88.5783 0.140319H67.4053V11.0465H84.7287V14.8688H71.148C69.0093 15.4294 67.1914 16.8054 66.2825 18.5891H88.4714V7.42811H71.148L71.0945 3.75873ZM38.1587 3.8097H52.5949C54.6266 3.45295 56.1237 1.72019 56.498 0.0893555H34.2021C34.6299 1.72019 36.127 3.40199 38.1587 3.8097ZM38.1587 11.0975H52.5949C54.6266 10.7407 56.1237 9.00798 56.498 7.37715H34.2021C34.6299 9.00798 36.127 10.6898 38.1587 11.0975ZM38.1587 18.5891H52.5949C54.6266 18.2324 56.1237 16.4996 56.498 14.8688H34.2021C34.6299 16.4996 36.127 18.2324 38.1587 18.5891Z" fill="#E51837"/>
<path d="M0.570801 0.140319C0.998539 1.77115 2.49562 3.40199 4.47391 3.8097H10.5692L10.89 3.91162V18.5382H14.6862V3.91162L15.007 3.8097H21.1022C23.134 3.30006 24.5776 1.77115 25.0053 0.140319V0.0893555L0.570801 0.140319Z" fill="#E51837"/>
</svg>
